<svg width="20" height="20" viewBox="0 0 20 20" fill="none" xmlns="http://www.w3.org/2000/svg">
<path d="M12.0754 15.6583C11.8474 16.0021 11.5378 16.2841 11.1743 16.4792C10.8108 16.6743 10.4046 16.7764 9.99209 16.7764C9.57954 16.7764 9.1734 16.6743 8.80989 16.4792C8.44638 16.2841 8.1368 16.0021 7.90875 15.6583C4.57542 10.7667 4.83375 8.4 4.83375 8.4C4.83375 7.03414 5.37634 5.72421 6.34215 4.7584C7.30797 3.79259 8.61789 3.25 9.98375 3.25C11.3496 3.25 12.6595 3.79259 13.6254 4.7584C14.5912 5.72421 15.1338 7.03414 15.1338 8.4C15.1338 8.4 15.4421 10.7667 12.0754 15.6583Z" stroke="#757575" stroke-linecap="round" stroke-linejoin="round"/>
<path d="M9.99967 10.0584C10.9201 10.0584 11.6663 9.31224 11.6663 8.39176C11.6663 7.47129 10.9201 6.7251 9.99967 6.7251C9.0792 6.7251 8.33301 7.47129 8.33301 8.39176C8.33301 9.31224 9.0792 10.0584 9.99967 10.0584Z" stroke="#757575" stroke-linecap="round" stroke-linejoin="round"/>
</svg>
