<svg width="19" height="19" viewBox="0 0 19 19" fill="none" xmlns="http://www.w3.org/2000/svg">
<path d="M9.84961 0.394531C13.4447 0.394531 15.2424 0.394336 16.5371 1.25098C17.1153 1.63353 17.6106 2.12887 17.9932 2.70703C18.8498 4.00176 18.8496 5.79946 18.8496 9.39453C18.8496 12.9896 18.8498 14.7873 17.9932 16.082C17.6106 16.6602 17.1153 17.1555 16.5371 17.5381C15.2424 18.3947 13.4447 18.3945 9.84961 18.3945C6.25454 18.3945 4.45684 18.3947 3.16211 17.5381C2.58395 17.1555 2.08861 16.6602 1.70605 16.082C0.849414 14.7873 0.849609 12.9896 0.849609 9.39453C0.849609 5.79946 0.849414 4.00176 1.70605 2.70703C2.08861 2.12887 2.58395 1.63353 3.16211 1.25098C4.45684 0.394336 6.25454 0.394531 9.84961 0.394531ZM9.84961 4.73535C7.2764 4.73546 5.19045 6.8213 5.19043 9.39453C5.19043 11.9678 7.27638 14.0536 9.84961 14.0537C12.4229 14.0537 14.5088 11.9679 14.5088 9.39453C14.5088 6.82123 12.4229 4.73535 9.84961 4.73535ZM9.84961 6.31152C11.5523 6.31152 12.9326 7.69186 12.9326 9.39453C12.9326 11.0972 11.5523 12.4775 9.84961 12.4775C8.14701 12.4774 6.7666 11.0972 6.7666 9.39453C6.76663 7.69192 8.14702 6.31163 9.84961 6.31152ZM14.6934 3.40625C14.0887 3.40625 13.5987 3.89637 13.5986 4.50098C13.5986 5.10563 14.0887 5.5957 14.6934 5.5957C15.298 5.59564 15.7881 5.10559 15.7881 4.50098C15.788 3.8964 15.2979 3.40631 14.6934 3.40625Z" fill="white"/>
</svg>
