<svg width="40" height="40" viewBox="0 0 40 40" fill="none" xmlns="http://www.w3.org/2000/svg">
<g clip-path="url(#clip0_1_2321)">
<path d="M27.4998 14.8977L28.9998 15.941L27.3981 19.6227C27.3279 19.7913 27.3124 19.9777 27.3536 20.1556C27.3949 20.3335 27.4909 20.494 27.6282 20.6145C27.7654 20.735 27.937 20.8094 28.1187 20.8273C28.3005 20.8452 28.4833 20.8057 28.6414 20.7143L32.5148 18.536L36.3881 20.7143C36.5462 20.8064 36.7293 20.8464 36.9114 20.8288C37.0935 20.8111 37.2655 20.7368 37.4031 20.6161C37.5407 20.4955 37.6369 20.3347 37.6782 20.1565C37.7194 19.9782 37.7037 19.7915 37.6331 19.6227L36.0298 15.941L38.9231 13.9243C39.0492 13.8128 39.1378 13.665 39.1765 13.5012C39.2153 13.3374 39.2023 13.1656 39.1395 13.0094C39.0766 12.8533 38.967 12.7204 38.8256 12.629C38.6842 12.5377 38.518 12.4924 38.3498 12.4993H35.0164L33.2964 7.97599C33.2218 7.83196 33.1091 7.71121 32.9705 7.62692C32.8319 7.54263 32.6728 7.49805 32.5106 7.49805C32.3484 7.49805 32.1893 7.54263 32.0507 7.62692C31.9121 7.71121 31.7994 7.83196 31.7248 7.97599L30.0114 12.4993H28.3331" fill="#D9B56C"/>
<path d="M35.0145 12.4993L33.2962 7.97599C33.2216 7.83196 33.1088 7.71121 32.9702 7.62692C32.8316 7.54263 32.6726 7.49805 32.5103 7.49805C32.3481 7.49805 32.189 7.54263 32.0505 7.62692C31.9119 7.71121 31.7991 7.83196 31.7245 7.97599L30.0112 12.4993H28.3328L27.4995 14.896L28.9995 15.9393L27.3978 19.621C27.3259 19.7986 27.3154 19.9951 27.3678 20.1793L35.0478 12.4993H35.0145Z" fill="#FAF8F5"/>
<path d="M12.4997 14.8977L10.9997 15.941L12.603 19.6227C12.6732 19.7913 12.6887 19.9777 12.6475 20.1556C12.6062 20.3335 12.5102 20.494 12.3729 20.6145C12.2357 20.735 12.0641 20.8094 11.8824 20.8273C11.7006 20.8453 11.5178 20.8057 11.3597 20.7143L7.4847 18.536L3.61137 20.7143C3.45324 20.8057 3.27044 20.8453 3.08869 20.8273C2.90693 20.8094 2.73536 20.735 2.59812 20.6145C2.46087 20.494 2.36486 20.3335 2.32359 20.1556C2.28232 19.9777 2.29786 19.7913 2.36803 19.6227L3.97137 15.941L1.07803 13.9243C0.951892 13.8129 0.863365 13.665 0.824618 13.5012C0.78587 13.3374 0.798802 13.1656 0.861638 13.0094C0.924473 12.8533 1.03413 12.7204 1.17554 12.629C1.31695 12.5377 1.48317 12.4924 1.65137 12.4993H4.9847L6.70137 7.976C6.77597 7.83196 6.88873 7.71121 7.02732 7.62692C7.1659 7.54263 7.32499 7.49805 7.4872 7.49805C7.64941 7.49805 7.8085 7.54263 7.94708 7.62692C8.08567 7.71121 8.19843 7.83196 8.27303 7.976L9.9847 12.4993H11.6664" fill="#D9B56C"/>
<path d="M2.33333 19.982L9.93333 12.3803L8.26666 7.97697C8.19205 7.83294 8.0793 7.71218 7.94071 7.62789C7.80212 7.5436 7.64303 7.49902 7.48083 7.49902C7.31862 7.49902 7.15953 7.5436 7.02094 7.62789C6.88236 7.71218 6.7696 7.83294 6.69499 7.97697L4.98666 12.5003H1.65333C1.48509 12.4928 1.31867 12.5377 1.17703 12.6288C1.0354 12.7199 0.92554 12.8527 0.862617 13.0089C0.799694 13.1651 0.786812 13.337 0.825749 13.5009C0.864686 13.6647 0.953522 13.8124 1.07999 13.9236L3.97166 15.9403L2.36999 19.622C2.33155 19.7378 2.31903 19.8607 2.33333 19.982Z" fill="#FAF8F5"/>
<path d="M20.7951 1.30998L22.5084 5.83332H25.8417C26.0097 5.82698 26.1754 5.8726 26.3165 5.96396C26.4575 6.05532 26.567 6.18797 26.6298 6.34381C26.6927 6.49965 26.706 6.67109 26.6679 6.83476C26.6297 6.99842 26.542 7.14633 26.4167 7.25832L23.5234 9.27498L25.1267 12.9567C25.1969 13.1253 25.2124 13.3116 25.1712 13.4896C25.1299 13.6675 25.0339 13.828 24.8966 13.9485C24.7594 14.069 24.5878 14.1434 24.4061 14.1613C24.2243 14.1792 24.0415 14.1397 23.8834 14.0483L20.0101 11.87L16.135 14.0483C15.9769 14.1397 15.7941 14.1792 15.6124 14.1613C15.4306 14.1434 15.259 14.069 15.1218 13.9485C14.9846 13.828 14.8885 13.6675 14.8473 13.4896C14.806 13.3116 14.8215 13.1253 14.8917 12.9567L16.5 9.27498L13.6017 7.25832C13.4756 7.14684 13.387 6.99903 13.3483 6.83521C13.3096 6.67139 13.3225 6.49959 13.3853 6.34341C13.4482 6.18724 13.5578 6.05435 13.6992 5.96301C13.8406 5.87168 14.0069 5.82637 14.175 5.83332H17.5084L19.2234 1.30998C19.298 1.16595 19.4107 1.04519 19.5493 0.960901C19.6879 0.876611 19.847 0.832031 20.0092 0.832031C20.1714 0.832031 20.3305 0.876611 20.4691 0.960901C20.6077 1.04519 20.7204 1.16595 20.7951 1.30998Z" fill="#D9B56C"/>
<path d="M22.5084 5.83331L20.795 1.30998C20.7204 1.16595 20.6077 1.04519 20.4691 0.960901C20.3305 0.876611 20.1714 0.832031 20.0092 0.832031C19.847 0.832031 19.6879 0.876611 19.5493 0.960901C19.4107 1.04519 19.298 1.16595 19.2234 1.30998L17.5084 5.83331H14.175C14.0072 5.82679 13.8415 5.87227 13.7005 5.96354C13.5595 6.0548 13.4501 6.1874 13.3874 6.34319C13.3246 6.49897 13.3116 6.67034 13.3499 6.83385C13.3883 6.99736 13.4762 7.14502 13.6017 7.25665L16.5 9.27332L14.8917 12.955C14.8192 13.1478 14.8192 13.3605 14.8917 13.5533L22.6084 5.83331H22.5084Z" fill="#FAF8F5"/>
<path d="M20.7951 1.30998L22.5084 5.83332H25.8417C26.0097 5.82698 26.1754 5.8726 26.3165 5.96396C26.4575 6.05532 26.567 6.18797 26.6298 6.34381C26.6927 6.49965 26.706 6.67109 26.6679 6.83476C26.6297 6.99842 26.542 7.14633 26.4167 7.25832L23.5234 9.27498L25.1267 12.9567C25.1969 13.1253 25.2124 13.3116 25.1712 13.4896C25.1299 13.6675 25.0339 13.828 24.8966 13.9485C24.7594 14.069 24.5878 14.1434 24.4061 14.1613C24.2243 14.1792 24.0415 14.1397 23.8834 14.0483L20.0101 11.87L16.135 14.0483C15.9769 14.1397 15.7941 14.1792 15.6124 14.1613C15.4306 14.1434 15.259 14.069 15.1218 13.9485C14.9846 13.828 14.8885 13.6675 14.8473 13.4896C14.806 13.3116 14.8215 13.1253 14.8917 12.9567L16.5 9.27498L13.6017 7.25832C13.4756 7.14684 13.387 6.99903 13.3483 6.83521C13.3096 6.67139 13.3225 6.49959 13.3853 6.34341C13.4482 6.18724 13.5578 6.05435 13.6992 5.96301C13.8406 5.87168 14.0069 5.82637 14.175 5.83332H17.5084L19.2234 1.30998C19.298 1.16595 19.4107 1.04519 19.5493 0.960901C19.6879 0.876611 19.847 0.832031 20.0092 0.832031C20.1714 0.832031 20.3305 0.876611 20.4691 0.960901C20.6077 1.04519 20.7204 1.16595 20.7951 1.30998Z" stroke="#2A2927" stroke-linecap="round" stroke-linejoin="round"/>
<path d="M12.4997 14.8977L10.9997 15.941L12.603 19.6227C12.6732 19.7913 12.6887 19.9777 12.6475 20.1556C12.6062 20.3335 12.5102 20.494 12.3729 20.6145C12.2357 20.735 12.0641 20.8094 11.8824 20.8273C11.7006 20.8453 11.5178 20.8057 11.3597 20.7143L7.4847 18.536L3.61137 20.7143C3.45324 20.8057 3.27044 20.8453 3.08869 20.8273C2.90693 20.8094 2.73536 20.735 2.59812 20.6145C2.46087 20.494 2.36486 20.3335 2.32359 20.1556C2.28232 19.9777 2.29786 19.7913 2.36803 19.6227L3.97137 15.941L1.07803 13.9243C0.951892 13.8129 0.863365 13.665 0.824618 13.5012C0.78587 13.3374 0.798802 13.1656 0.861638 13.0094C0.924473 12.8533 1.03413 12.7204 1.17554 12.629C1.31695 12.5377 1.48317 12.4924 1.65137 12.4993H4.9847L6.70137 7.976C6.77597 7.83196 6.88873 7.71121 7.02732 7.62692C7.1659 7.54263 7.32499 7.49805 7.4872 7.49805C7.64941 7.49805 7.8085 7.54263 7.94708 7.62692C8.08567 7.71121 8.19843 7.83196 8.27303 7.976L9.9847 12.4993H11.6664" stroke="#2A2927" stroke-linecap="round" stroke-linejoin="round"/>
<path d="M27.4998 14.8977L28.9998 15.941L27.3981 19.6227C27.3279 19.7913 27.3124 19.9777 27.3536 20.1556C27.3949 20.3335 27.4909 20.494 27.6282 20.6145C27.7654 20.735 27.937 20.8094 28.1187 20.8273C28.3005 20.8452 28.4833 20.8057 28.6414 20.7143L32.5148 18.536L36.3881 20.7143C36.5462 20.8064 36.7293 20.8464 36.9114 20.8288C37.0935 20.8111 37.2655 20.7368 37.4031 20.6161C37.5407 20.4955 37.6369 20.3347 37.6782 20.1565C37.7194 19.9782 37.7037 19.7915 37.6331 19.6227L36.0298 15.941L38.9231 13.9243C39.0492 13.8128 39.1378 13.665 39.1765 13.5012C39.2153 13.3374 39.2023 13.1656 39.1395 13.0094C39.0766 12.8533 38.967 12.7204 38.8256 12.629C38.6842 12.5377 38.518 12.4924 38.3498 12.4993H35.0164L33.2964 7.97599C33.2218 7.83196 33.1091 7.71121 32.9705 7.62692C32.8319 7.54263 32.6728 7.49805 32.5106 7.49805C32.3484 7.49805 32.1893 7.54263 32.0507 7.62692C31.9121 7.71121 31.7994 7.83196 31.7248 7.97599L30.0114 12.4993H28.3331" stroke="#2A2927" stroke-linecap="round" stroke-linejoin="round"/>
<path d="M20.0563 32.4993C21.1276 32.4993 22.1749 32.1817 23.0657 31.5865C23.9564 30.9913 24.6507 30.1453 25.0607 29.1556C25.4706 28.1658 25.5779 27.0767 25.3689 26.0259C25.1599 24.9752 24.644 24.0101 23.8865 23.2525C23.1289 22.495 22.1638 21.9791 21.1131 21.7701C20.0623 21.5611 18.9732 21.6684 17.9834 22.0783C16.9937 22.4883 16.1477 23.1826 15.5525 24.0733C14.9573 24.9641 14.6396 26.0114 14.6396 27.0827C14.6396 28.5193 15.2103 29.897 16.2262 30.9128C17.242 31.9287 18.6197 32.4993 20.0563 32.4993Z" fill="#FAF8F5" stroke="#2A2927" stroke-linecap="round" stroke-linejoin="round"/>
<path d="M27.4736 39.166C26.6615 37.9165 25.5501 36.8897 24.2403 36.1788C22.9305 35.468 21.4639 35.0957 19.9736 35.0957C18.4834 35.0957 17.0168 35.468 15.707 36.1788C14.3972 36.8897 13.2858 37.9165 12.4736 39.166" fill="#D9B56C"/>
<path d="M27.4736 39.166C26.6615 37.9165 25.5501 36.8897 24.2403 36.1788C22.9305 35.468 21.4639 35.0957 19.9736 35.0957C18.4834 35.0957 17.0168 35.468 15.707 36.1788C14.3972 36.8897 13.2858 37.9165 12.4736 39.166" stroke="#2A2927" stroke-linecap="round" stroke-linejoin="round"/>
</g>
<defs>
<clipPath id="clip0_1_2321">
<rect width="40" height="40" fill="white"/>
</clipPath>
</defs>
</svg>
