<svg width="40" height="40" viewBox="0 0 40 40" fill="none" xmlns="http://www.w3.org/2000/svg">
<circle cx="21" cy="20" r="9" fill="#FAF8F5"/>
<path d="M24.5355 16.4645C25.4732 17.4021 26 18.6739 26 20C26 21.3261 25.4732 22.5979 24.5355 23.5355C23.5979 24.4732 22.3261 25 21 25C19.6739 25 18.4021 24.4732 17.4645 23.5355L21 20L24.5355 16.4645Z" fill="#D9B56C"/>
<path d="M9 16C9 16.7956 8.68393 17.5587 8.12132 18.1213C7.55871 18.6839 6.79565 19 6 19C5.20435 19 4.44129 18.6839 3.87868 18.1213C3.31607 17.5587 3 16.7957 3 16L6 16H9Z" fill="#D9B56C"/>
<path d="M21 25C18.2386 25 16 22.7614 16 20C16 17.2386 18.2386 15 21 15" stroke="#2A2927" stroke-linecap="round"/>
<path d="M21 29C16.0294 29 12 24.9706 12 20C12 15.0294 16.0294 11 21 11" stroke="#2A2927" stroke-linecap="round"/>
<path d="M21 25C23.7614 25 26 22.7614 26 20C26 17.2386 23.7614 15 21 15" stroke="#2A2927" stroke-linecap="round"/>
<path d="M21 29C25.9706 29 30 24.9706 30 20C30 15.0294 25.9706 11 21 11" stroke="#2A2927" stroke-linecap="round"/>
<path d="M6 11L6 16M6 29L6 19" stroke="#2A2927" stroke-linecap="round" stroke-linejoin="round"/>
<path d="M3.5 16H8.5" stroke="#2A2927" stroke-linecap="round" stroke-linejoin="round"/>
<path d="M9 11L9 15.3522C9 20.216 3 20.2159 3 15.3521L3 11" stroke="#2A2927" stroke-linecap="round" stroke-linejoin="round"/>
<path d="M34 22V11C35.8338 11.6417 37.1386 12.9135 37.3572 14.8209L37.9793 20.2509C38.16 21.8284 37.136 21.8392 35.7307 21.8446C34.7893 21.8482 34.3186 21.85 34 22Z" fill="#FAF8F5"/>
<path d="M34 11L34.1651 10.5281C34.0122 10.4745 33.8428 10.4985 33.7107 10.5922C33.5785 10.686 33.5 10.838 33.5 11H34ZM33.5 29C33.5 29.2761 33.7239 29.5 34 29.5C34.2761 29.5 34.5 29.2761 34.5 29H34H33.5ZM37.3572 14.8209L36.8604 14.8778V14.8778L37.3572 14.8209ZM37.9793 20.2509L38.4761 20.1939V20.1939L37.9793 20.2509ZM35.7307 21.8446L35.7288 21.3446H35.7288L35.7307 21.8446ZM34 11H33.5V22H34H34.5V11H34ZM34 22H33.5V29H34H34.5V22H34ZM37.3572 14.8209L36.8604 14.8778L37.4826 20.3078L37.9793 20.2509L38.4761 20.1939L37.8539 14.764L37.3572 14.8209ZM35.7307 21.8446L35.7288 21.3446C35.2651 21.3464 34.8922 21.3476 34.5962 21.3687C34.3003 21.3898 34.0299 21.4333 33.7871 21.5476L34 22L34.2129 22.4524C34.2887 22.4167 34.413 22.3843 34.6674 22.3662C34.9218 22.348 35.2549 22.3464 35.7326 22.3446L35.7307 21.8446ZM37.3572 14.8209L37.8539 14.764C37.6079 12.6165 36.1275 11.2147 34.1651 10.5281L34 11L33.8349 11.4719C35.5402 12.0686 36.6694 13.2106 36.8604 14.8778L37.3572 14.8209ZM37.9793 20.2509L37.4826 20.3078C37.5224 20.656 37.4878 20.8578 37.44 20.973C37.3992 21.0715 37.3375 21.1355 37.2297 21.1884C37.1057 21.2491 36.9224 21.2929 36.6551 21.3172C36.39 21.3413 36.0853 21.3432 35.7288 21.3446L35.7307 21.8446L35.7326 22.3446C36.0788 22.3433 36.4291 22.3418 36.7456 22.3131C37.0598 22.2845 37.3847 22.226 37.6699 22.0862C37.9711 21.9385 38.2194 21.7038 38.3636 21.3564C38.5009 21.0256 38.5265 20.6345 38.4761 20.1939L37.9793 20.2509Z" fill="#2A2927"/>
</svg>
