<svg width="40" height="40" viewBox="0 0 40 40" fill="none" xmlns="http://www.w3.org/2000/svg">
<path d="M24.0115 13.9893H31.0341C32.2758 13.9893 33.4666 14.4825 34.3446 15.3605C35.2226 16.2385 35.7158 17.4293 35.7158 18.671V28.0344L24.0115 28.0344" stroke="#2A2927" stroke-linecap="round" stroke-linejoin="round"/>
<path d="M7.62474 28.0345H5.28388V11.6485C5.28388 11.0276 5.53051 10.4322 5.96951 9.99324C6.4085 9.55424 7.00391 9.30762 7.62474 9.30762H21.6699C22.2907 9.30762 22.8861 9.55424 23.3251 9.99324C23.7641 10.4322 24.0107 11.0276 24.0107 11.6485V28.0345" fill="#FAF8F5"/>
<path d="M7.62474 28.0345H5.28388V11.6485C5.28388 11.0276 5.53051 10.4322 5.96951 9.99324C6.4085 9.55424 7.00391 9.30762 7.62474 9.30762H21.6699C22.2907 9.30762 22.8861 9.55424 23.3251 9.99324C23.7641 10.4322 24.0107 11.0276 24.0107 11.6485V28.0345" stroke="#2A2927" stroke-linecap="round" stroke-linejoin="round"/>
<path d="M22.8408 28.0342H16.9887" stroke="#2A2927" stroke-linecap="round" stroke-linejoin="round"/>
<path d="M27.417 23.2783C24.5945 23.2783 22.3059 25.5663 22.3057 28.3887C22.3057 31.2113 24.5944 33.5 27.417 33.5C30.2394 33.4998 32.5273 31.2111 32.5273 28.3887C32.5271 25.5664 30.2393 23.2786 27.417 23.2783Z" fill="#FAF8F5" stroke="#2A2927" stroke-linecap="round" stroke-linejoin="round"/>
<path d="M12.6621 23.2783C9.83965 23.2783 7.55101 25.5663 7.55078 28.3887C7.55078 31.2113 9.8395 33.5 12.6621 33.5C15.4845 33.4998 17.7725 31.2111 17.7725 28.3887C17.7722 25.5664 15.4844 23.2786 12.6621 23.2783Z" fill="#FAF8F5" stroke="#2A2927" stroke-linecap="round" stroke-linejoin="round"/>
<path d="M24.1563 25.1288C23.2916 25.9935 22.8058 27.1662 22.8058 28.3891C22.8058 29.612 23.2916 30.7847 24.1562 31.6494C25.0209 32.5141 26.1937 32.9999 27.4166 32.9999C28.6394 32.9999 29.8122 32.5141 30.6769 31.6494L27.4166 28.3891L24.1563 25.1288Z" fill="#D9B56C"/>
<path d="M9.40137 25.1288C8.53668 25.9935 8.0509 27.1662 8.0509 28.3891C8.0509 29.612 8.53668 30.7847 9.40137 31.6494C10.2661 32.5141 11.4388 32.9999 12.6617 32.9999C13.8845 32.9999 15.0573 32.5141 15.922 31.6494L12.6617 28.3891L9.40137 25.1288Z" fill="#D9B56C"/>
</svg>
