<svg width="28" height="28" viewBox="0 0 28 28" fill="none" xmlns="http://www.w3.org/2000/svg">
<path d="M20.5996 19.433C19.451 20.5817 16.9846 23.048 15.4137 24.6189C14.6327 25.4 13.3678 25.4005 12.5868 24.6195C11.0426 23.0753 8.62588 20.6586 7.4003 19.433C3.7554 15.7881 3.7554 9.87856 7.4003 6.23367C11.0452 2.58878 16.9547 2.58878 20.5996 6.23367C24.2445 9.87856 24.2445 15.7881 20.5996 19.433Z" stroke="#D9B56C" stroke-width="2" stroke-linecap="round" stroke-linejoin="round"/>
<path d="M17.5 12.8333C17.5 14.7663 15.933 16.3333 14 16.3333C12.067 16.3333 10.5 14.7663 10.5 12.8333C10.5 10.9003 12.067 9.33333 14 9.33333C15.933 9.33333 17.5 10.9003 17.5 12.8333Z" stroke="#D9B56C" stroke-width="2" stroke-linecap="round" stroke-linejoin="round"/>
</svg>
