<svg width="16" height="16" viewBox="0 0 16 16" fill="none" xmlns="http://www.w3.org/2000/svg">
<path d="M7.52169 2.30217C7.67534 1.99088 7.75217 1.83523 7.85647 1.7855C7.94722 1.74224 8.05264 1.74224 8.14339 1.7855C8.24769 1.83523 8.32452 1.99088 8.47817 2.30217L9.93596 5.25548C9.98132 5.34738 10.004 5.39333 10.0372 5.42901C10.0665 5.4606 10.1017 5.48619 10.1408 5.50437C10.185 5.52491 10.2357 5.53232 10.3371 5.54714L13.5979 6.02376C13.9413 6.07395 14.113 6.09905 14.1924 6.18292C14.2616 6.25589 14.2941 6.35616 14.2809 6.45581C14.2658 6.57034 14.1415 6.69141 13.8929 6.93355L11.5342 9.23091C11.4607 9.30252 11.4239 9.33833 11.4002 9.38093C11.3792 9.41866 11.3657 9.4601 11.3605 9.50296C11.3547 9.55137 11.3633 9.60196 11.3807 9.70312L11.9372 12.948C11.9959 13.2903 12.0253 13.4614 11.9701 13.563C11.9221 13.6513 11.8368 13.7133 11.738 13.7316C11.6243 13.7527 11.4707 13.6719 11.1633 13.5102L8.24817 11.9772C8.15734 11.9294 8.11193 11.9055 8.06408 11.8961C8.02172 11.8878 7.97814 11.8878 7.93578 11.8961C7.88793 11.9055 7.84252 11.9294 7.75169 11.9772L4.83653 13.5102C4.5292 13.6719 4.37553 13.7527 4.2619 13.7316C4.16304 13.7133 4.07773 13.6513 4.02974 13.563C3.97459 13.4614 4.00394 13.2903 4.06263 12.948L4.61918 9.70312C4.63653 9.60196 4.6452 9.55137 4.63933 9.50296C4.63413 9.4601 4.62066 9.41866 4.59966 9.38093C4.57593 9.33833 4.53917 9.30252 4.46564 9.2309L2.10696 6.93355C1.85836 6.69141 1.73406 6.57034 1.71894 6.45581C1.70578 6.35616 1.73829 6.25589 1.80742 6.18292C1.88688 6.09905 2.05857 6.07395 2.40195 6.02376L5.66279 5.54714C5.7642 5.53232 5.81491 5.52491 5.85906 5.50437C5.89816 5.48619 5.93336 5.4606 5.96271 5.42901C5.99586 5.39333 6.01854 5.34738 6.0639 5.25548L7.52169 2.30217Z" fill="#F0A400" stroke="#F0A400" stroke-linecap="round" stroke-linejoin="round"/>
</svg>
