<svg width="40" height="35" viewBox="0 0 40 35" fill="none" xmlns="http://www.w3.org/2000/svg">
<path d="M25.1381 26.872L6.8109 33.6163L3.53696 31.1024L17.7276 21.1817L8.95345 14.4444L2.45539 17.2612L-5.68005e-05 15.3758L7.29322 9.26642L11.3126 0.643114L13.768 2.52855L12.726 9.5348L21.5001 16.2721L27.4191 2.04339e-05L30.6931 2.51393L28.909 21.9611L37.8256 28.8077C38.4768 29.3078 38.9027 30.046 39.0096 30.8601C39.1165 31.6742 38.8956 32.4974 38.3956 33.1486C37.8955 33.7998 37.1573 34.2257 36.3432 34.3326C35.5291 34.4395 34.7059 34.2187 34.0547 33.7186L25.1381 26.872Z" fill="white"/>
</svg>
