<svg width="47" height="42" viewBox="0 0 47 42" fill="none" xmlns="http://www.w3.org/2000/svg">
<path d="M12.9073 24.6821L13.7951 2.36088L17.8842 1.44537e-05L22.1631 19.3383L33.122 13.0112L32.9869 4.91091L36.0538 3.14026L39.3211 13.5212L46.6777 21.5414L43.6108 23.312L36.6612 19.1461L25.7023 25.4732L40.3124 38.8468L36.2233 41.2076L16.4486 30.8158L5.31188 37.2456C4.4985 37.7152 3.53189 37.8425 2.62468 37.5994C1.71748 37.3563 0.943991 36.7628 0.474386 35.9494C0.0047819 35.136 -0.122475 34.1694 0.12061 33.2622C0.363695 32.355 0.957211 31.5815 1.77059 31.1119L12.9073 24.6821Z" fill="white"/>
</svg>
